<svg xmlns="http://www.w3.org/2000/svg" width="105.196" height="108.387" viewBox="0 0 105.196 108.387">
  <g id="Group_135" data-name="Group 135" transform="translate(-1200.003 -1832.549)">
    <path id="Path_49" data-name="Path 49" d="M201.431,239.86l-4.793,5.126-.037,4.187,8.77-9.274Z" transform="translate(1003.663 1592.689)" fill="#d5d5d5"/>
    <path id="Path_50" data-name="Path 50" d="M218.96,239.88,196.59,263.631v4.187l26.271-27.938Z" transform="translate(1003.636 1592.747)" fill="#d5d5d5"/>
    <path id="Path_51" data-name="Path 51" d="M236.516,239.89l-39.908,42.416-.037,4.187,43.847-46.564Z" transform="translate(1003.582 1592.776)" fill="#d5d5d5"/>
    <path id="Path_52" data-name="Path 52" d="M254.044,239.91,196.56,300.951v4.187l61.386-65.228Z" transform="translate(1003.555 1592.834)" fill="#d5d5d5"/>
    <path id="Path_53" data-name="Path 53" d="M271.6,239.92,196.54,319.626v4.187L275.5,239.959Z" transform="translate(1003.5 1592.864)" fill="#d5d5d5"/>
    <path id="Path_54" data-name="Path 54" d="M289.129,239.94l-92.6,98.331v4.148l96.5-102.479Z" transform="translate(1003.473 1592.922)" fill="#d5d5d5"/>
    <path id="Path_55" data-name="Path 55" d="M295.4,241.29,198.86,343.769l3.9.039,92.6-98.331Z" transform="translate(1009.801 1596.854)" fill="#d5d5d5"/>
    <path id="Path_56" data-name="Path 56" d="M282.532,246.07,203.57,329.924h3.9l75.061-79.667Z" transform="translate(1022.593 1610.778)" fill="#d5d5d5"/>
    <path id="Path_57" data-name="Path 57" d="M269.7,250.85,208.28,316.039l3.9.039,57.484-61.041Z" transform="translate(1035.385 1624.702)" fill="#d5d5d5"/>
    <path id="Path_58" data-name="Path 58" d="M256.837,255.63,212.99,302.193h3.9l39.946-42.377Z" transform="translate(1048.176 1638.625)" fill="#d5d5d5"/>
    <path id="Path_59" data-name="Path 59" d="M243.971,260.41l-26.271,27.9,3.9.039,22.37-23.751Z" transform="translate(1060.968 1652.549)" fill="#d5d5d5"/>
    <path id="Path_60" data-name="Path 60" d="M231.142,265.19l-8.732,9.274h3.9l4.831-5.087Z" transform="translate(1073.76 1666.473)" fill="#d5d5d5"/>
  </g>
</svg>
