<svg xmlns="http://www.w3.org/2000/svg" width="166.924" height="165.354" viewBox="0 0 166.924 165.354">
  <g id="Group_246" data-name="Group 246" transform="translate(-1020.45 -1091.266)" opacity="0.06">
    <path id="Path_2214" data-name="Path 2214" d="M8.972-5.712A6.024,6.024,0,0,1,4.786-3.77,6.024,6.024,0,0,1,.454-5.36,6.042,6.042,0,0,1,.1-13.9a6.042,6.042,0,0,1,4.2-1.962,6.042,6.042,0,0,1,4.354,1.592A6.024,6.024,0,0,1,10.6-10.055,6.024,6.024,0,0,1,8.972-5.712Z" transform="translate(1021.945 1184.694)" fill="#00276a"/>
    <path id="Path_2215" data-name="Path 2215" d="M51.057,33.1a6.042,6.042,0,1,1-.425-8.537A6.042,6.042,0,0,1,51.057,33.1Z" transform="translate(1066.792 1221.347)" fill="#00276a"/>
    <path id="Path_2229" data-name="Path 2229" d="M51.057,33.1a6.042,6.042,0,1,1-.425-8.537A6.042,6.042,0,0,1,51.057,33.1Z" transform="translate(1096.694 1083.498)" fill="#00276a"/>
    <path id="Path_2228" data-name="Path 2228" d="M51.057,33.1a6.042,6.042,0,1,1-.425-8.537A6.042,6.042,0,0,1,51.057,33.1Z" transform="translate(985.617 1189.875)" fill="#00276a"/>
    <path id="Path_2216" data-name="Path 2216" d="M65.066,46.056a6.042,6.042,0,1,1-.351-8.518A6.042,6.042,0,0,1,65.066,46.056Z" transform="translate(1088.475 1208.605)" fill="#00276a"/>
    <path id="Path_2217" data-name="Path 2217" d="M34.742-5.5a6.042,6.042,0,0,1-8.518.333,6.024,6.024,0,0,1-1.942-4.186,6.024,6.024,0,0,1,1.591-4.332,6.042,6.042,0,0,1,8.537-.333A6.042,6.042,0,0,1,34.742-5.5Z" transform="translate(1039.364 1167.636)" fill="#00276a"/>
    <path id="Path_2226" data-name="Path 2226" d="M34.742-5.5a6.042,6.042,0,0,1-8.518.333,6.024,6.024,0,0,1-1.942-4.186,6.024,6.024,0,0,1,1.591-4.332,6.042,6.042,0,0,1,8.537-.333A6.042,6.042,0,0,1,34.742-5.5Z" transform="translate(1031.278 1208.138)" fill="#00276a"/>
    <path id="Path_2218" data-name="Path 2218" d="M48.836,7.435a6.024,6.024,0,0,1-8.592.388,6.062,6.062,0,1,1,8.592-.388Z" transform="translate(1061.678 1209.864)" fill="#00276a"/>
    <path id="Path_2230" data-name="Path 2230" d="M48.836,7.435a6.024,6.024,0,0,1-8.592.388,6.062,6.062,0,1,1,8.592-.388Z" transform="translate(1025.692 1235.28)" fill="#00276a"/>
    <path id="Path_2227" data-name="Path 2227" d="M48.836,7.435a6.024,6.024,0,0,1-8.592.388,6.062,6.062,0,1,1,8.592-.388Z" transform="translate(987.889 1135.675)" fill="#00276a"/>
    <path id="Path_2219" data-name="Path 2219" d="M32.467-31.171a6.042,6.042,0,0,1-8.518.333,6.024,6.024,0,0,1-1.932-4.19,6.024,6.024,0,0,1,1.6-4.328A6.024,6.024,0,0,1,27.8-41.3a6.024,6.024,0,0,1,4.332,1.591A6.061,6.061,0,0,1,32.467-31.171Z" transform="translate(1033.616 1144.998)" fill="#00276a"/>
    <path id="Path_2220" data-name="Path 2220" d="M46.49-18.236A6.024,6.024,0,0,1,42.3-16.3a6.024,6.024,0,0,1-4.328-1.6,6.005,6.005,0,0,1-1.94-4.19,6.005,6.005,0,0,1,1.607-4.328,6.024,6.024,0,0,1,4.19-1.932,6.024,6.024,0,0,1,4.328,1.6A6.042,6.042,0,0,1,46.49-18.236Z" transform="translate(1051.756 1159.102)" fill="#00276a"/>
    <path id="Path_2221" data-name="Path 2221" d="M60.512-5.3a6.024,6.024,0,0,1-4.186,1.942,6.024,6.024,0,0,1-4.332-1.591,6.024,6.024,0,0,1-1.942-4.186,6.024,6.024,0,0,1,1.591-4.332,6.042,6.042,0,0,1,8.537-.351A6.042,6.042,0,0,1,60.512-5.3Z" transform="translate(1073.641 1155.076)" fill="#00276a"/>
    <path id="Path_2222" data-name="Path 2222" d="M74.532,7.548A6.035,6.035,0,0,1,65.662-.637a6.042,6.042,0,0,1,8.869,8.186Z" transform="translate(1081.527 1183.139)" fill="#00276a"/>
    <path id="Path_2232" data-name="Path 2232" d="M74.532,7.548A6.035,6.035,0,0,1,65.662-.637a6.042,6.042,0,0,1,8.869,8.186Z" transform="translate(1107.527 1217.139)" fill="#00276a"/>
    <path id="Path_2233" data-name="Path 2233" d="M74.532,7.548A6.035,6.035,0,0,1,65.662-.637a6.042,6.042,0,0,1,8.869,8.186Z" transform="translate(1067.527 1215.139)" fill="#00276a"/>
    <path id="Path_2231" data-name="Path 2231" d="M74.532,7.548A6.035,6.035,0,0,1,65.662-.637a6.042,6.042,0,0,1,8.869,8.186Z" transform="translate(1035.527 1177.139)" fill="#00276a"/>
    <path id="Path_2223" data-name="Path 2223" d="M44.225-43.885a6.042,6.042,0,0,1-8.518.333,6.024,6.024,0,0,1-1.951-4.208,6.024,6.024,0,0,1,1.618-4.347,6.005,6.005,0,0,1,4.19-1.94,6.005,6.005,0,0,1,4.328,1.607,6.024,6.024,0,0,1,1.951,4.208,6.024,6.024,0,0,1-1.618,4.347Z" transform="translate(1059.826 1145.319)" fill="#00276a"/>
    <path id="Path_2224" data-name="Path 2224" d="M72.257-18.011a6.042,6.042,0,0,1-8.518.333,6.024,6.024,0,0,1-1.932-4.19,6.024,6.024,0,0,1,1.6-4.328,6.024,6.024,0,0,1,4.186-1.942,6.024,6.024,0,0,1,4.332,1.591,6.042,6.042,0,0,1,.333,8.537Z" transform="translate(1095.422 1169.37)" fill="#00276a"/>
    <path id="Path_2225" data-name="Path 2225" d="M86.277-5.079a6.024,6.024,0,0,1-4.19,1.932,6.024,6.024,0,0,1-4.328-1.6,6.024,6.024,0,0,1-1.932-4.19,6.024,6.024,0,0,1,1.6-4.328,6.042,6.042,0,0,1,8.518-.333,6.024,6.024,0,0,1,1.932,4.19,6.024,6.024,0,0,1-1.6,4.328Z" transform="translate(1099.493 1183.262)" fill="#00276a"/>
  </g>
</svg>
