<svg xmlns="http://www.w3.org/2000/svg" width="50.797" height="52.338" viewBox="0 0 50.797 52.338">
  <g id="Group_150" data-name="Group 150" transform="translate(-1200.003 -1832.549)">
    <path id="Path_49" data-name="Path 49" d="M198.933,239.86l-2.315,2.475-.018,2.022,4.235-4.478Z" transform="translate(1003.529 1592.689)" fill="#5ef18f"/>
    <path id="Path_50" data-name="Path 50" d="M207.392,239.88l-10.8,11.469v2.022l12.686-13.491Z" transform="translate(1003.521 1592.707)" fill="#5ef18f"/>
    <path id="Path_51" data-name="Path 51" d="M215.859,239.89l-19.271,20.482-.018,2.022,21.173-22.485Z" transform="translate(1003.505 1592.716)" fill="#5ef18f"/>
    <path id="Path_52" data-name="Path 52" d="M224.318,239.91,196.56,269.386v2.022l29.642-31.5Z" transform="translate(1003.497 1592.733)" fill="#5ef18f"/>
    <path id="Path_53" data-name="Path 53" d="M232.785,239.92,196.54,278.409v2.022l38.129-40.491Z" transform="translate(1003.481 1592.742)" fill="#5ef18f"/>
    <path id="Path_54" data-name="Path 54" d="M241.245,239.94,196.53,287.422v2l46.6-49.485Z" transform="translate(1003.473 1592.76)" fill="#5ef18f"/>
    <path id="Path_55" data-name="Path 55" d="M245.477,241.29,198.86,290.775l1.884.019,44.715-47.482Z" transform="translate(1005.324 1593.961)" fill="#5ef18f"/>
    <path id="Path_56" data-name="Path 56" d="M241.7,246.07,203.57,286.561h1.884l36.245-38.47Z" transform="translate(1009.065 1598.212)" fill="#5ef18f"/>
    <path id="Path_57" data-name="Path 57" d="M237.94,250.85l-29.66,31.479,1.884.019,27.758-29.476Z" transform="translate(1012.806 1602.464)" fill="#5ef18f"/>
    <path id="Path_58" data-name="Path 58" d="M234.163,255.63,212.99,278.115h1.884l19.289-20.463Z" transform="translate(1016.548 1606.716)" fill="#5ef18f"/>
    <path id="Path_59" data-name="Path 59" d="M230.386,260.41,217.7,273.882l1.884.019,10.8-11.469Z" transform="translate(1020.289 1610.968)" fill="#5ef18f"/>
    <path id="Path_60" data-name="Path 60" d="M226.627,265.19l-4.217,4.478h1.884l2.333-2.456Z" transform="translate(1024.03 1615.219)" fill="#5ef18f"/>
  </g>
</svg>
