<svg xmlns="http://www.w3.org/2000/svg" xmlns:xlink="http://www.w3.org/1999/xlink" width="239.463" height="253.813" viewBox="0 0 239.463 253.813">
  <defs>
    <filter id="Intersection_6" x="0" y="0" width="239.463" height="253.813" filterUnits="userSpaceOnUse">
      <feOffset dy="7" input="SourceAlpha"/>
      <feGaussianBlur stdDeviation="17.5" result="blur"/>
      <feFlood flood-opacity="0.078"/>
      <feComposite operator="in" in2="blur"/>
      <feComposite in="SourceGraphic"/>
    </filter>
  </defs>
  <g transform="matrix(1, 0, 0, 1, 0, 0)" filter="url(#Intersection_6)">
    <path id="Intersection_6-2" data-name="Intersection 6" d="M112.919,133.542a2.262,2.262,0,1,1,2.489.484,2.257,2.257,0,0,1-2.489-.484Zm-34.794,0a2.279,2.279,0,0,1,0-3.217,2.273,2.273,0,1,1,0,3.217ZM8.607,133.48a2.235,2.235,0,0,1,0-3.151l0,0a2.211,2.211,0,0,1,3.132,0,2.235,2.235,0,0,1,0,3.151,2.211,2.211,0,0,1-3.137,0Zm34.8-.008a2.233,2.233,0,0,1,0-3.15l0,0a2.212,2.212,0,0,1,3.134,0,2.237,2.237,0,0,1,0,3.152,2.213,2.213,0,0,1-3.136,0Zm103.759-1.607a2.22,2.22,0,1,1,2.217,2.227A2.273,2.273,0,0,1,147.169,131.864ZM43.323,102.319a2.273,2.273,0,0,1,1.646-3.88,2.208,2.208,0,0,1,1.571.649,2.232,2.232,0,0,1,.646,1.577A2.277,2.277,0,0,1,45.81,102.8a2.254,2.254,0,0,1-2.487-.484Zm-34.8,0a2.273,2.273,0,0,1,1.648-3.88,2.209,2.209,0,0,1,2.216,2.227,2.262,2.262,0,0,1-3.864,1.653Zm69.6-.008a2.262,2.262,0,1,1,2.488.484,2.254,2.254,0,0,1-2.488-.484Zm34.864-.062a2.234,2.234,0,0,1,0-3.151l0,0a2.211,2.211,0,0,1,3.133,0,2.235,2.235,0,0,1,0,3.15,2.211,2.211,0,0,1-3.137,0Zm34.8-.008a2.235,2.235,0,0,1,0-3.151l0,0a2.212,2.212,0,0,1,3.134,0,2.236,2.236,0,0,1,0,3.151,2.212,2.212,0,0,1-3.137,0ZM8.528,71.088a2.282,2.282,0,0,1-.482-2.5,2.266,2.266,0,0,1,2.128-1.382,2.214,2.214,0,0,1,2.217,2.227,2.262,2.262,0,0,1-3.864,1.654ZM43.3,71.063a2.272,2.272,0,0,1,1.647-3.879,2.2,2.2,0,0,1,1.57.648,2.226,2.226,0,0,1,.646,1.578A2.261,2.261,0,0,1,43.3,71.063Zm69.691-.045a2.235,2.235,0,0,1,0-3.151l0,0a2.21,2.21,0,0,1,3.133,0,2.236,2.236,0,0,1,0,3.151,2.214,2.214,0,0,1-3.137,0Zm34.147-1.584a2.22,2.22,0,1,1,2.225,2.234A2.272,2.272,0,0,1,147.137,69.434Zm-69.589,0a2.272,2.272,0,0,1,.666-1.564,2.215,2.215,0,1,1-.666,1.564ZM43.4,39.786a2.236,2.236,0,0,1,0-3.151l0,0a2.212,2.212,0,0,1,3.134,0,2.234,2.234,0,0,1,0,3.151,2.211,2.211,0,0,1-3.137,0Zm-34.795,0a2.236,2.236,0,0,1,0-3.151l0,0a2.212,2.212,0,0,1,3.134,0,2.235,2.235,0,0,1,0,3.151,2.211,2.211,0,0,1-3.137,0ZM112.342,38.2a2.221,2.221,0,1,1,2.225,2.236A2.27,2.27,0,0,1,112.342,38.2Zm34.795,0a2.22,2.22,0,1,1,2.225,2.234A2.274,2.274,0,0,1,147.137,38.2Zm-69.589,0a2.27,2.27,0,0,1,.666-1.563,2.2,2.2,0,0,1,3.776,1.571,2.221,2.221,0,1,1-4.442-.008ZM8.536,8.626a2.262,2.262,0,1,1,2.484.485,2.255,2.255,0,0,1-2.484-.485ZM113,8.563a2.234,2.234,0,0,1,0-3.15l0,0a2.212,2.212,0,0,1,3.133,0,2.234,2.234,0,0,1,0,3.15,2.21,2.21,0,0,1-3.136,0ZM77.54,6.98a2.225,2.225,0,1,1,4.45,0,2.225,2.225,0,1,1-4.45,0Zm-34.794,0a2.225,2.225,0,1,1,2.224,2.235A2.268,2.268,0,0,1,42.746,6.98Z" transform="translate(50.25 199.61) rotate(-90)" fill="#fff" stroke="#fff" stroke-width="5" opacity="0.26"/>
  </g>
</svg>
